<?xml version="1.0" encoding="UTF-8"?>
<svg version="1.1" xmlns="http://www.w3.org/2000/svg" width="512" height="512">
<path d="M0 0 C84.48 0 168.96 0 256 0 C256 73.92 256 147.84 256 224 C237.62119961 222.85132498 237.62119961 222.85132498 228.96459961 221.74082947 C227.97087625 221.61746847 226.97715288 221.49410748 225.95331669 221.36700827 C222.68572484 220.96018187 219.41905355 220.54641263 216.15234375 220.13256836 C213.78553472 219.83643463 211.41867114 219.54073656 209.05175781 219.24543762 C202.67218494 218.44827616 196.29338576 217.64507542 189.91471481 216.84073329 C183.91003846 216.08402082 177.90466756 215.3328517 171.89936078 214.58116216 C160.0170566 213.09369398 148.13530704 211.60184347 136.25390625 210.10717773 C124.72294767 208.65660687 113.19172695 207.20814815 101.66015625 205.76245117 C100.5802871 205.62706553 100.5802871 205.62706553 99.47860241 205.48894483 C93.21485953 204.70366363 86.95109682 203.91854073 80.68733215 203.13343334 C53.79075389 199.76197784 26.89549131 196.38014185 0 193 C0 129.31 0 65.62 0 0 Z " fill="#000000" transform="translate(256,272)"/>
<path d="M0 0 C0 73.92 0 147.84 0 224 C-84.48 224 -168.96 224 -256 224 C-256 160.31 -256 96.62 -256 31 C-194.08689792 23.22053089 -194.08689792 23.22053089 -168.234375 19.98046875 C-162.31704783 19.23884502 -156.39972839 18.49715962 -150.48242188 17.75537109 C-149.36998305 17.61592062 -149.36998305 17.61592062 -148.23507071 17.47365296 C-136.26619466 15.97319559 -124.29775838 14.46925802 -112.32948118 12.96403235 C-100.04440468 11.41904226 -87.7588624 9.87779816 -75.47288084 8.34002161 C-67.89340375 7.3912157 -60.3143039 6.43949899 -52.7356624 5.48404133 C-46.92176208 4.75138696 -41.1072167 4.02394795 -35.29241943 3.29844475 C-32.90897782 3.00023942 -30.52574669 2.70034615 -28.14274597 2.39863777 C-24.88807378 1.9868251 -21.63269725 1.58110431 -18.3770752 1.17687988 C-16.96459653 0.99595079 -16.96459653 0.99595079 -15.52358294 0.81136656 C-14.64377244 0.7033813 -13.76396195 0.59539603 -12.85749054 0.48413849 C-11.73199948 0.34288253 -11.73199948 0.34288253 -10.58377123 0.19877291 C-7.06562095 -0.07188301 -3.52854588 0 0 0 Z " fill="#000000" transform="translate(512,16)"/>
<path d="M0 0 C73.92 0 147.84 0 224 0 C224 62.04 224 124.08 224 188 C205.62119961 186.85132498 205.62119961 186.85132498 198.17944336 185.89268494 C197.31639367 185.78565815 196.45334398 185.67863136 195.56414127 185.56836134 C192.7387721 185.21680705 189.91432958 184.85833206 187.08984375 184.49975586 C185.03830166 184.24303038 182.98670496 183.98674103 180.93505859 183.73085022 C175.4149613 183.04112272 169.8956396 182.34536473 164.37644577 181.64844966 C158.59003282 180.91885896 152.80291325 180.19491639 147.01586914 179.47035217 C136.07945189 178.10020298 125.14367141 176.72503915 114.20811558 175.34803349 C99.41526325 173.48561494 84.62142976 171.63102356 69.82765198 169.77597332 C46.55096543 166.85700978 23.27559826 163.92765913 0 161 C0 107.87 0 54.74 0 0 Z " fill="#000000" transform="translate(0,272)"/>
<path d="M0 0 C0 62.04 0 124.08 0 188 C-73.92 188 -147.84 188 -224 188 C-224 134.87 -224 81.74 -224 27 C-170.15514628 20.22909025 -170.15514628 20.22909025 -147.609375 17.40234375 C-132.0354429 15.44966612 -116.46164484 13.49595878 -100.88867188 11.53564453 C-89.54751826 10.1080333 -78.20593624 8.68388378 -66.86382627 7.26388979 C-60.85828161 6.51189304 -54.85296578 5.75816438 -48.84815979 5.00028992 C-43.19515969 4.28687288 -37.54159782 3.57808927 -31.88757324 2.87283897 C-29.81374248 2.61333523 -27.74012176 2.35214641 -25.66673279 2.08913612 C-22.83244878 1.72986369 -19.9974662 1.37670343 -17.16223145 1.02502441 C-16.34508934 0.91996881 -15.52794724 0.81491321 -14.68604326 0.7066741 C-13.53353051 0.56559658 -13.53353051 0.56559658 -12.35773468 0.42166901 C-11.70461571 0.33964942 -11.05149674 0.25762982 -10.37858629 0.17312479 C-6.9277049 -0.07804672 -3.46001005 0 0 0 Z " fill="#000000" transform="translate(224,52)"/>
</svg>
